<svg width="152" height="116" viewBox="0 0 152 116" fill="none" xmlns="http://www.w3.org/2000/svg">
<path d="M20.7404 115.13C19.9551 115.13 19.201 114.822 18.6401 114.273C18.0792 113.723 17.7562 112.975 17.7404 112.19C17.7404 103.73 18.2204 97.25 19.9604 91.97H3.96045C3.1648 91.97 2.40175 91.6539 1.83914 91.0913C1.27653 90.5287 0.960449 89.7656 0.960449 88.97C0.960449 81.21 1.80046 76.48 5.63046 72.72C8.95046 69.48 14.2404 67.4 23.1104 65C20.1104 62.83 17.8504 59 16.7904 54.61C16.036 51.5498 15.853 48.3766 16.2505 45.25C16.6318 42.0636 17.8689 39.0399 19.8304 36.5C22.4604 33.22 26.4504 31.12 32.0504 31.12C37.6504 31.12 41.6404 33.22 44.2704 36.5C46.2351 39.0391 47.4757 42.0627 47.8604 45.25C48.2747 48.3766 48.088 51.5535 47.3105 54.61C46.2505 58.95 44.0305 62.83 41.0305 65C43.4505 65.64 45.6404 66.3101 47.5504 66.9401C49.5091 67.5676 51.4234 68.326 53.2805 69.2101C56.0105 68.3801 58.9805 67.5701 62.1505 66.7101V63.63C55.8705 60.22 51.1505 52.47 48.9405 43.63C47.524 37.9399 47.1848 32.0349 47.9405 26.22C48.6262 20.4276 50.869 14.9294 54.4305 10.3101C59.1004 4.57006 66.2004 0.790039 76.2304 0.790039C86.2604 0.790039 93.3704 4.57006 98.0404 10.3101C101.598 14.9319 103.84 20.4288 104.53 26.22C105.286 32.0349 104.947 37.9399 103.53 43.63C101.34 52.52 96.6004 60.27 90.3204 63.63V66.7101C93.4904 67.5701 96.4605 68.3801 99.1905 69.2101C101.047 68.3242 102.961 67.5658 104.92 66.9401C106.83 66.3101 109.02 65.67 111.44 65C108.44 62.83 106.22 59 105.16 54.61C104.383 51.5535 104.196 48.3766 104.61 45.25C104.995 42.0627 106.236 39.0391 108.2 36.5C110.82 33.22 114.82 31.12 120.42 31.12C126.02 31.12 130.01 33.22 132.63 36.5C134.6 39.0351 135.838 42.0612 136.21 45.25C136.618 48.3763 136.435 51.5513 135.67 54.61C134.62 58.95 132.36 62.83 129.36 65C138.23 67.4 143.52 69.48 146.83 72.72C150.67 76.48 151.5 81.21 151.51 88.97C151.51 89.7656 151.194 90.5287 150.632 91.0913C150.069 91.6539 149.306 91.97 148.51 91.97H132.3C134.04 97.25 134.52 103.73 134.52 112.19C134.505 112.975 134.182 113.723 133.621 114.273C133.06 114.822 132.306 115.13 131.52 115.13H20.7404ZM130.94 110.13C130.81 101.8 130.07 95.8001 127.67 91.2101C127.501 90.9633 127.36 90.6983 127.25 90.42C126.427 88.9367 125.381 87.5878 124.15 86.42C118.27 80.69 107.26 76.85 87.6905 71.75C86.9898 71.6243 86.3565 71.2536 85.9041 70.704C85.4516 70.1544 85.2093 69.4618 85.2205 68.75V61.34C85.2354 60.7255 85.4338 60.1296 85.7902 59.6288C86.1466 59.128 86.6448 58.7454 87.2205 58.53C92.7505 56.45 97.0504 49.53 99.0804 41.29C100.394 36.1918 100.706 30.8872 100 25.67C99.4789 20.7996 97.6126 16.1704 94.6104 12.3C90.9204 7.77005 87.3504 4.83008 76.9804 4.83008C68.7504 4.83008 63.0404 7.77005 59.3504 12.3C56.3482 16.1704 54.482 20.7996 53.9604 25.67C53.2665 30.8872 53.5753 36.1888 54.8705 41.29C56.8705 49.46 61.1404 56.29 66.5704 58.47C67.1817 58.6657 67.7166 59.0476 68.1003 59.5621C68.4839 60.0767 68.6973 60.6982 68.7104 61.34V68.75C68.7072 69.4268 68.4753 70.0826 68.0523 70.6108C67.6293 71.1391 67.0401 71.5089 66.3805 71.66C46.7105 76.8 35.6605 80.6 29.7805 86.37C28.5496 87.5378 27.5042 88.8867 26.6805 90.37C26.583 90.6416 26.4411 90.895 26.2604 91.12C23.8704 95.75 23.1304 101.75 22.9904 110.12L130.94 110.13ZM22.6205 86.97C23.5338 85.4573 24.6138 84.0519 25.8405 82.78C29.6905 78.78 35.1704 75.62 43.1704 72.6C41.1104 71.92 38.7705 71.1901 36.0605 70.4401C35.4398 70.2497 34.8976 69.8631 34.5154 69.3384C34.1331 68.8137 33.9314 68.1792 33.9405 67.53V63.79C33.926 63.1669 34.106 62.5547 34.4555 62.0386C34.805 61.5224 35.3065 61.128 35.8904 60.91C37.9804 59.91 39.6404 56.91 40.4604 53.27C41.0214 50.8556 41.1668 48.3633 40.8904 45.9C40.6722 43.7159 39.8937 41.6251 38.6305 39.8301C37.1705 37.8301 34.8504 36.61 31.4504 36.61C30.0844 36.5299 28.7192 36.781 27.4709 37.3416C26.2226 37.9022 25.1281 38.7559 24.2805 39.8301C23.0216 41.6275 22.2436 43.717 22.0204 45.9C21.7441 48.3633 21.8895 50.8556 22.4504 53.27C23.3004 57.01 25.0305 60.09 27.1505 60.98C27.6987 61.2144 28.1647 61.607 28.4889 62.1075C28.8131 62.608 28.9807 63.1938 28.9705 63.79V67.53C28.9789 68.2069 28.7583 68.8667 28.3444 69.4022C27.9304 69.9378 27.3476 70.3176 26.6905 70.48C17.7905 72.98 12.8205 74.83 10.2805 77.48C8.36046 79.48 7.71044 82.3701 7.54044 86.9401L22.6205 86.97ZM109.08 72.6C117.08 75.6 122.55 78.74 126.41 82.78C127.637 84.0519 128.717 85.4573 129.63 86.97H144.71C144.54 82.4 143.89 79.53 141.97 77.51C139.42 74.83 134.46 72.98 125.56 70.51C124.903 70.3476 124.32 69.9678 123.907 69.4323C123.493 68.8967 123.272 68.2369 123.28 67.5601V63.8201C123.27 63.2238 123.438 62.6381 123.762 62.1376C124.086 61.6371 124.552 61.2445 125.1 61.01C127.22 60.12 128.95 57.01 129.79 53.3C130.362 50.8872 130.508 48.393 130.22 45.9301C130.005 43.7468 129.23 41.6561 127.97 39.86C127.07 38.8468 125.965 38.0358 124.728 37.4805C123.491 36.9251 122.151 36.6381 120.795 36.6381C119.44 36.6381 118.1 36.9251 116.863 37.4805C115.626 38.0358 114.521 38.8468 113.62 39.86C112.357 41.655 111.579 43.7459 111.36 45.9301C111.079 48.3932 111.225 50.8863 111.79 53.3C112.61 56.93 114.27 59.9801 116.35 60.9401C116.944 61.1497 117.456 61.5405 117.815 62.0574C118.174 62.5742 118.361 63.1909 118.35 63.8201V67.5601C118.359 68.2092 118.158 68.8437 117.776 69.3684C117.393 69.8931 116.851 70.2796 116.23 70.47C113.48 71.23 111.14 71.96 109.08 72.64V72.6Z" fill="#FF6400"/>
</svg>
