<?xml version="1.0" encoding="UTF-8" standalone="no"?> <svg width="32" height="32" viewBox="0 0 32 32" fill="none" xmlns="http://www.w3.org/2000/svg">
<path d="M27 4H17V3C17 2.73478 16.8946 2.48043 16.7071 2.29289C16.5196 2.10536 16.2652 2 16 2C15.7348 2 15.4804 2.10536 15.2929 2.29289C15.1054 2.48043 15 2.73478 15 3V4H5C4.20435 4 3.44129 4.31607 2.87868 4.87868C2.31607 5.44129 2 6.20435 2 7V23C2 23.7956 2.31607 24.5587 2.87868 25.1213C3.44129 25.6839 4.20435 26 5 26H11.7L10.15 28.47C10.0802 28.5816 10.0331 28.7058 10.0114 28.8356C9.98965 28.9654 9.99378 29.0982 10.0235 29.2264C10.0532 29.3546 10.108 29.4757 10.1846 29.5827C10.2612 29.6897 10.3582 29.7806 10.47 29.85C10.5816 29.9198 10.7058 29.9669 10.8356 29.9886C10.9654 30.0104 11.0982 30.0062 11.2264 29.9765C11.3546 29.9468 11.4757 29.892 11.5827 29.8154C11.6897 29.7388 11.7806 29.6418 11.85 29.53L14.05 26H18L20.2 29.53C20.2694 29.6418 20.3603 29.7388 20.4673 29.8154C20.5743 29.892 20.6954 29.9468 20.8236 29.9765C20.9518 30.0062 21.0846 30.0104 21.2144 29.9886C21.3442 29.9669 21.4684 29.9198 21.58 29.85C21.6918 29.7806 21.7888 29.6897 21.8654 29.5827C21.942 29.4757 21.9968 29.3546 22.0265 29.2264C22.0562 29.0982 22.0604 28.9654 22.0386 28.8356C22.0169 28.7058 21.9698 28.5816 21.9 28.47L20.3 26H27C27.7956 26 28.5587 25.6839 29.1213 25.1213C29.6839 24.5587 30 23.7956 30 23V7C30 6.20435 29.6839 5.44129 29.1213 4.87868C28.5587 4.31607 27.7956 4 27 4V4ZM4 7C4 6.73478 4.10536 6.48043 4.29289 6.29289C4.48043 6.10536 4.73478 6 5 6H27C27.2652 6 27.5196 6.10536 27.7071 6.29289C27.8946 6.48043 28 6.73478 28 7V20H26V19C26 18.2044 25.6839 17.4413 25.1213 16.8787C24.5587 16.3161 23.7956 16 23 16H21C20.2044 16 19.4413 16.3161 18.8787 16.8787C18.3161 17.4413 18 18.2044 18 19V20H4V7ZM24 20H20V19C20 18.7348 20.1054 18.4804 20.2929 18.2929C20.4804 18.1054 20.7348 18 21 18H23C23.2652 18 23.5196 18.1054 23.7071 18.2929C23.8946 18.4804 24 18.7348 24 19V20ZM28 23C28 23.2652 27.8946 23.5196 27.7071 23.7071C27.5196 23.8946 27.2652 24 27 24H5C4.73478 24 4.48043 23.8946 4.29289 23.7071C4.10536 23.5196 4 23.2652 4 23V22H28V23Z" fill="black"/>
</svg>
