<svg width="42" height="42" viewBox="0 0 42 42" fill="none" xmlns="http://www.w3.org/2000/svg">
<path d="M21.405 0.247559C17.3484 0.247559 13.3829 1.45059 10.0101 3.70454C6.63723 5.95849 4.00861 9.16208 2.45666 12.9101C0.904712 16.6581 0.499154 20.7822 1.29129 24.7608C2.08342 28.7393 4.03766 32.3936 6.90683 35.2613C9.776 38.1291 13.4312 40.0816 17.4101 40.8718C21.3891 41.662 25.5129 41.2544 29.2602 39.7006C33.0075 38.1469 36.2098 35.5167 38.4621 32.1428C40.7144 28.7688 41.9155 24.8027 41.9136 20.7461C41.9109 15.3086 39.7491 10.0948 35.9032 6.25084C32.0574 2.4069 26.8425 0.247558 21.405 0.247559ZM31.9782 28.5788C31.1012 29.9441 30.3339 31.3492 26.6567 31.4389C22.9795 31.5286 19.0134 28.3297 16.1832 25.2205C13.3531 22.5 10.7223 18.9225 10.7223 15.5243C10.8119 11.8471 12.2171 11.0798 13.5823 10.2029C13.8162 10.1181 14.0684 10.0964 14.3133 10.1402C14.5582 10.1839 14.7873 10.2915 14.9774 10.452C15.6252 11.02 18.4653 13.8601 18.4653 13.8601C18.4653 13.8601 19.4618 14.7071 18.7742 15.6339C18.2261 16.3813 16.9406 17.7466 16.7811 17.926L17.2694 18.8328C18.2462 20.5037 19.4959 21.9992 20.9666 23.2574C22.0169 24.0515 23.1263 24.7644 24.285 25.3899C24.5939 25.1109 25.8396 23.9549 26.5372 23.3969C26.8174 23.2155 27.1557 23.1466 27.4846 23.2039C27.8134 23.2612 28.1085 23.4404 28.311 23.7058C28.311 23.7058 31.1511 26.5459 31.7191 27.1936C31.8823 27.3802 31.9924 27.6072 32.038 27.8508C32.0835 28.0945 32.0629 28.3459 31.9782 28.5788Z" fill="white"/>
</svg>
