<svg width="42" height="42" viewBox="0 0 42 42" fill="none" xmlns="http://www.w3.org/2000/svg">
<path fill-rule="evenodd" clip-rule="evenodd" d="M21.425 41.1064C25.4841 41.1083 29.4525 39.9064 32.8283 37.6525C36.204 35.3987 38.8355 32.1942 40.3897 28.4445C41.944 24.6949 42.3511 20.5685 41.5597 16.5873C40.7684 12.6062 38.8139 8.94925 35.9438 6.07908C33.0736 3.20892 29.4167 1.25451 25.4355 0.463121C21.4544 -0.328272 17.328 0.0788847 13.5783 1.63312C9.82864 3.18735 6.62419 5.81882 4.37035 9.1946C2.1165 12.5704 0.914535 16.5388 0.916506 20.5978C0.916506 26.037 3.07722 31.2534 6.92332 35.0995C10.7694 38.9456 15.9858 41.1064 21.425 41.1064V41.1064ZM12.1075 11.8682L21.425 19.3222L30.7426 11.8682L31.0116 11.639H11.8385L12.1075 11.8682ZM32.0381 13.4029L32.3968 13.1039V28.5501C32.3968 28.8144 32.2918 29.0679 32.1049 29.2547C31.9181 29.4416 31.6646 29.5466 31.4003 29.5466H11.4697C11.2054 29.5466 10.952 29.4416 10.7651 29.2547C10.5782 29.0679 10.4732 28.8144 10.4732 28.5501V13.1039L10.832 13.4029L20.7972 21.3751C20.974 21.5166 21.1936 21.5937 21.4201 21.5937C21.6465 21.5937 21.8661 21.5166 22.0429 21.3751L32.0082 13.4029H32.0381Z" fill="white"/>
</svg>
