<svg width="42" height="42" viewBox="0 0 42 42" fill="none" xmlns="http://www.w3.org/2000/svg">
<mask id="mask0_77_24169" style="mask-type:alpha" maskUnits="userSpaceOnUse" x="0" y="0" width="42" height="42">
<path d="M41.9336 0.913086H0.916504V41.9302H41.9336V0.913086Z" fill="white"/>
</mask>
<g mask="url(#mask0_77_24169)">
<path d="M21.4249 0.913086C21.0861 0.913086 20.7473 0.913086 20.4284 0.913086C20.1095 0.913086 19.7607 0.913063 19.4319 0.98282C19.103 1.05258 18.7642 1.0526 18.4353 1.10243C18.1065 1.15226 17.7677 1.21204 17.4388 1.2818C17.11 1.35155 16.7811 1.42131 16.4423 1.50103C16.1035 1.58076 15.7945 1.67043 15.4458 1.77009C15.097 1.86974 14.808 1.96939 14.4492 2.07901L13.5125 2.44772C13.2036 2.57727 12.8947 2.70682 12.5957 2.8563C12.2967 3.00578 11.9878 3.1453 11.6988 3.30475C11.4098 3.46419 11.1109 3.6336 10.8219 3.80301C10.5329 3.97242 10.2439 4.1518 9.96486 4.34114L9.14771 4.91912L8.35049 5.53696L7.59313 6.19467C7.344 6.42387 7.09487 6.65309 6.8557 6.89225C6.61653 7.13142 6.38733 7.37057 6.16809 7.6197C5.94886 7.86883 5.71965 8.11797 5.51038 8.37707C5.30111 8.63617 5.09184 8.90522 4.89254 9.17428C4.69323 9.44334 4.49393 9.72239 4.31455 10.0014C4.13518 10.2804 3.94583 10.5595 3.76646 10.8485C3.58708 11.1375 3.43761 11.4265 3.27816 11.7254C3.11872 12.0244 2.96924 12.3233 2.81976 12.6223C2.67028 12.9212 2.54074 13.2302 2.41119 13.5491C2.28164 13.8679 2.16205 14.1669 2.05244 14.4858C1.94282 14.8047 1.8332 15.1236 1.73355 15.4823C1.6339 15.8411 1.5442 16.1201 1.46448 16.4788C1.38476 16.8376 1.315 17.1366 1.24524 17.4754C1.17549 17.8142 1.12566 18.1331 1.07584 18.4719C1.02601 18.8107 0.986146 19.1396 0.95625 19.4684C0.926354 19.7973 0.896464 20.1461 0.876534 20.465C0.856603 20.7838 0.876534 21.1326 0.876534 21.4615C0.876534 21.7903 0.876534 22.1391 0.876534 22.458C0.876534 22.7769 0.876528 23.1257 0.95625 23.4545C1.03597 23.7834 1.02601 24.1222 1.07584 24.4511C1.12566 24.7799 1.18545 25.1187 1.24524 25.4476C1.30504 25.7764 1.38476 26.1053 1.46448 26.4441C1.5442 26.7829 1.6339 27.0919 1.73355 27.4406C1.8332 27.7894 1.94282 28.0784 2.05244 28.4372C2.16205 28.7959 2.28164 29.065 2.41119 29.3739C2.54074 29.6828 2.68025 29.9917 2.81976 30.2907C2.95927 30.5897 3.11872 30.8986 3.27816 31.1876C3.43761 31.4766 3.59705 31.7755 3.76646 32.0645C3.93587 32.3535 4.12521 32.6425 4.31455 32.9216C4.50389 33.2006 4.69323 33.4697 4.89254 33.7387C5.09184 34.0078 5.29115 34.2768 5.51038 34.5359C5.72962 34.795 5.93889 35.0442 6.16809 35.2933C6.39729 35.5424 6.6265 35.7915 6.8557 36.0307C7.0849 36.2699 7.344 36.4991 7.59313 36.7183C7.84226 36.9376 8.09139 37.1668 8.35049 37.376C8.60959 37.5853 8.87865 37.7946 9.14771 37.9939C9.41677 38.1932 9.68583 38.3925 9.96486 38.5718C10.2439 38.7512 10.5329 38.9406 10.8219 39.12L11.6988 39.6082C11.9878 39.7677 12.2868 39.9172 12.5957 40.0666L13.5125 40.4752C13.8214 40.6048 14.1403 40.7244 14.4492 40.834L15.4458 41.1529L16.4423 41.4219L17.4388 41.6412L18.4353 41.8106C18.7642 41.8106 19.103 41.9003 19.4319 41.9302C19.7607 41.9601 20.0995 41.9899 20.4284 42.0099C20.7573 42.0298 21.0961 42.0099 21.4249 42.0099C21.7538 42.0099 22.0926 42.0099 22.4215 42.0099C22.7503 42.0099 23.0891 42.0099 23.418 41.9302L24.4145 41.8106L25.411 41.6412L26.4076 41.4219C26.7364 41.3322 27.0553 41.2525 27.4041 41.1529C27.7529 41.0532 28.0419 40.9436 28.4006 40.834C28.7594 40.7244 29.0284 40.6048 29.3374 40.4752C29.6463 40.3457 29.9552 40.2062 30.2641 40.0666L31.161 39.6082L32.038 39.12L32.885 38.5718C33.164 38.3925 33.4431 38.1932 33.7121 37.9939C33.9812 37.7946 34.2403 37.5953 34.4994 37.376C34.7585 37.1568 35.0176 36.9475 35.2667 36.7183C35.5158 36.4891 35.755 36.2599 35.9942 36.0307C36.2333 35.8015 36.4625 35.5424 36.6917 35.2933L37.3494 34.5359C37.5587 34.2768 37.768 34.0078 37.9673 33.7387C38.1666 33.4697 38.3559 33.2006 38.5453 32.9216C38.7346 32.6425 38.914 32.3535 39.0834 32.0645C39.2528 31.7755 39.4222 31.4866 39.5817 31.1876C39.7411 30.8886 39.8906 30.5996 40.0301 30.2907C40.1696 29.9818 40.3091 29.6828 40.4387 29.3739C40.5682 29.065 40.6878 28.7461 40.8074 28.4372C40.927 28.1283 41.0266 27.7994 41.1163 27.4406C41.206 27.0819 41.3057 26.7929 41.3854 26.4441C41.4651 26.0953 41.5448 25.7964 41.6046 25.4476C41.6644 25.0988 41.7342 24.7799 41.784 24.4511C41.8338 24.1222 41.8737 23.7834 41.9036 23.4545C41.9335 23.1257 41.9634 22.7869 41.9733 22.458C41.9833 22.1292 41.9733 21.7903 41.9733 21.4615C41.9733 21.1326 41.9733 20.7938 41.9733 20.465C41.9733 20.1361 41.9733 19.7973 41.9036 19.4684C41.8338 19.1396 41.8338 18.8107 41.784 18.4719C41.7342 18.1331 41.6744 17.8142 41.6046 17.4754C41.5349 17.1366 41.4651 16.8177 41.3854 16.4788C41.3057 16.14 41.216 15.8311 41.1163 15.4823C41.0167 15.1335 40.917 14.8445 40.8074 14.4858C40.6978 14.127 40.5682 13.858 40.4387 13.5491C40.3091 13.2401 40.1796 12.9312 40.0301 12.6223C39.8806 12.3134 39.7411 12.0244 39.5817 11.7254C39.4222 11.4265 39.2528 11.1375 39.0834 10.8485C38.914 10.5595 38.7346 10.2804 38.5453 10.0014C38.3559 9.72239 38.1666 9.44334 37.9673 9.17428C37.768 8.90522 37.5587 8.63617 37.3494 8.37707L36.6917 7.6197C36.4625 7.37057 36.2333 7.13142 35.9942 6.89225L35.2667 6.19467L34.4994 5.53696C34.2403 5.32769 33.9812 5.11842 33.7121 4.91912C33.4431 4.71981 33.164 4.53048 32.885 4.34114C32.606 4.1518 32.3269 3.97242 32.038 3.80301C31.749 3.6336 31.46 3.46419 31.161 3.30475L30.2641 2.8563C29.9552 2.70682 29.6463 2.57727 29.3374 2.44772L28.4006 2.07901C28.0817 1.96939 27.7628 1.85977 27.4041 1.77009C27.0453 1.6804 26.7564 1.58076 26.4076 1.50103C26.0588 1.42131 25.7499 1.34159 25.411 1.2818L24.4145 1.10243L23.418 0.98282C23.0792 0.98282 22.7403 0.923051 22.4215 0.913086H21.4249ZM21.8335 34.0974C21.7921 34.1579 21.7417 34.2117 21.684 34.2569H21.4648C21.3921 34.2673 21.3183 34.2673 21.2456 34.2569C21.1772 34.2303 21.1134 34.1933 21.0562 34.1473C20.6775 33.8683 11.9579 27.1018 11.9579 18.2028C11.9579 18.0534 11.9579 17.8939 11.9579 17.7345C11.9579 17.575 11.9579 17.4255 11.9579 17.2761C11.9579 17.1266 11.9579 16.9671 11.9579 16.8077C11.9579 16.6482 11.9579 16.4988 12.0376 16.3493C12.1174 16.1998 12.1074 16.0503 12.1373 15.8909C12.1672 15.7315 12.217 15.5919 12.2668 15.4424C12.3077 15.2934 12.3576 15.147 12.4163 15.004C12.4163 14.8545 12.5259 14.715 12.5758 14.5655L12.7651 14.137L12.9744 13.7284L13.2135 13.3198C13.2933 13.1803 13.373 13.0508 13.4627 12.9212C13.5433 12.7888 13.6332 12.6622 13.7317 12.5425C13.8214 12.413 13.9111 12.2934 14.0108 12.1738C14.1104 12.0543 14.2101 11.9347 14.3197 11.825C14.4293 11.7154 14.529 11.5958 14.6386 11.4862L14.9774 11.1574L15.3361 10.8584L15.6949 10.5694L16.0835 10.3004L16.4722 10.0512L16.8808 9.82205L17.2993 9.61275L17.7278 9.42341L18.1563 9.25402L18.6048 9.10454L19.0532 8.98497L19.5116 8.88531C19.6611 8.88531 19.8106 8.82552 19.97 8.79562L20.4284 8.74578H20.8968H21.8335H22.2919L22.7603 8.79562C22.9098 8.79562 23.0692 8.84545 23.2187 8.88531L23.6771 8.98497L24.1255 9.10454L24.564 9.25402L25.0025 9.42341L25.431 9.61275L25.8495 9.82205L26.2481 10.0512L26.6467 10.3004L27.0254 10.5694C27.155 10.6591 27.2746 10.7588 27.3941 10.8584L27.7429 11.1574L28.0817 11.4862L28.4106 11.825L28.7096 12.1738C28.8092 12.2934 28.9089 12.413 28.9985 12.5425L29.2676 12.9212C29.3573 13.0508 29.437 13.1803 29.5167 13.3198C29.5965 13.4594 29.6762 13.5889 29.7459 13.7284L29.9552 14.137C30.025 14.2765 30.0848 14.426 30.1445 14.5655C30.2043 14.705 30.2641 14.8545 30.314 15.004L30.4634 15.4424L30.583 15.8909C30.583 16.0503 30.6528 16.1998 30.6827 16.3493C30.7126 16.4988 30.7425 16.6582 30.7624 16.8077C30.7921 16.9624 30.8121 17.1188 30.8222 17.2761C30.8321 17.4287 30.8321 17.5818 30.8222 17.7345C30.8222 17.8939 30.8222 18.0534 30.8222 18.2028C30.9318 27.052 22.2022 33.8184 21.8335 34.0974Z" fill="white"/>
</g>
</svg>
